PathFileType	4	(X/Y/Z)	Walk6.trc
DataRate	CameraRate	NumFrames	NumMarkers	Units	OrigDataRate	OrigDataStartFrame	OrigNumFrames
200.000000	200.000000	4	60	mm	200.000000	604	789
Frame#	Times		RCAR		LToe		LTB1		LMT5		LMT1		LTB4		LTB3		LLFC		RWRR		RWRU		RACR1		RFA1		LUA1		LFA1		STRN		LFHD		LACR1		LElbow		LTH2		LCAR		C7		LPSI		RTB2		LASI		LWRU		RPSI		RLFC		CLAV		LWRR		RToe		RTB3		RMT1		RMT5		LTH1		RMFC		RTB1		LMFC		LTH4		LTH3		RCAL		RTB4		RLMAL		LBHD		RTH2		LTB2		RMMAL		RBHD		RBack		RElbow		RTH4		RASI		RTH3		LCAL		RUA1		LMMAL		RTH1		T10		LElbowM		LLMAL		RElbowM
			X1	Y1	Z1	X2	Y2	Z2	X3	Y3	Z3	X4	Y4	Z4	X5	Y5	Z5	X6	Y6	Z6	X7	Y7	Z7	X8	Y8	Z8	X9	Y9	Z9	X10	Y10	Z10	X11	Y11	Z11	X12	Y12	Z12	X13	Y13	Z13	X14	Y14	Z14	X15	Y15	Z15	X16	Y16	Z16	X17	Y17	Z17	X18	Y18	Z18	X19	Y19	Z19	X20	Y20	Z20	X21	Y21	Z21	X22	Y22	Z22	X23	Y23	Z23	X24	Y24	Z24	X25	Y25	Z25	X26	Y26	Z26	X27	Y27	Z27	X28	Y28	Z28	X29	Y29	Z29	X30	Y30	Z30	X31	Y31	Z31	X32	Y32	Z32	X33	Y33	Z33	X34	Y34	Z34	X35	Y35	Z35	X36	Y36	Z36	X37	Y37	Z37	X38	Y38	Z38	X39	Y39	Z39	X40	Y40	Z40	X41	Y41	Z41	X42	Y42	Z42	X43	Y43	Z43	X44	Y44	Z44	X45	Y45	Z45	X46	Y46	Z46	X47	Y47	Z47	X48	Y48	Z48	X49	Y49	Z49	X50	Y50	Z50	X51	Y51	Z51	X52	Y52	Z52	X53	Y53	Z53	X54	Y54	Z54	X55	Y55	Z55	X56	Y56	Z56	X57	Y57	Z57	X58	Y58	Z58	X59	Y59	Z59	X60	Y60	Z60

604	3.02	521.47	858.23	388.85	317.2	48.066	-70.626	467.04	390.38	-50.977	239.41	117.91	-124.82	286.51	91.733	-48.736	398.99	339.53	-43.242	333.79	285.75	-38.528	507.06	526.89	-146.84	528.4	898.86	325.61	459.66	892.45	382.21	435.22	1501.3	221.85	470.69	1035.9	352.91	415.86	1357.5	-233.29	456.1	1056.5	-287.24	553.86	1303.1	24.948	585.79	1707.6	11.613	428.62	1541	-149.69	377	1189.9	-281.34	529.86	750	-180.39	493.8	889.52	-299.88	326.53	1566.9	45.528	259.36	1076.4	-43.462	476.4	277.67	161.55	483.65	1036.4	-136.47	423.85	929.63	-307.49	256.28	1075.8	65.602	432.18	512.23	197.21	491.73	1476.7	23.038	493.88	927.94	-243.72	625.2	40.15	82.05	467.76	198.55	90.984	574.94	53.251	69.442	530.74	30.285	164.85	449.26	813.16	-193.14	428.13	507.7	49.117	484.86	369.34	109.58	548.91	513.48	-13.034	476.04	730.27	-184.06	502.06	647.77	-173.46	353.23	40.683	83.998	476.33	283.57	99.877	412.15	72.499	127.1	419.9	1706.3	-17.677	443.31	742.93	230.31	402.46	326.89	-105.76	444.06	105.05	37.582	408.32	1697.9	124.02	268.8	1442.2	160.36	380.36	1161.2	337.97	386.27	730.19	216.19	473.03	1054	184.92	405.43	648.83	208.93	150.65	264	-33.576	420.01	1320.7	293.43	251.31	228.08	6.9532	368.52	815.98	226.58	276.24	1211.8	12.589	340.29	1162.8	-197.99	203.73	235.76	-86.099	353.45	1133.2	249.36
605	3.025	530.1	859.91	389.3	335.79	47.753	-69.247	478.51	391.62	-50.046	256.54	115.65	-123.96	303.96	90.73	-47.605	411.35	339.72	-42.352	347.29	285.13	-37.907	516.93	528.46	-146.22	536.56	900.54	326.02	468.05	893.72	382.84	440.49	1502.1	222.04	478.06	1037.2	353.48	420.15	1357.9	-233.09	460.05	1057	-287.21	558.72	1303.5	25.328	591.08	1707.9	11.785	433.5	1541.4	-149.48	380.94	1190.4	-281.09	537.05	751.92	-180.24	498.01	890.29	-300.05	331.62	1567.5	45.853	264.25	1076.9	-43.337	476.87	277.53	161.7	488.81	1037.2	-135.71	427.79	930	-307.06	261	1076.2	65.781	433.31	512.27	197.37	496.75	1477.2	23.246	498.27	928.56	-243.78	625.27	40.05	82.158	468.19	198.48	91.152	574.96	53.227	69.546	530.72	30.25	164.9	455.81	814.23	-192.76	429.61	507.83	49.15	485.72	369.17	109.77	558.43	515.91	-12.275	483.4	731.61	-183.6	510.34	649.41	-172.88	353.23	40.696	83.945	476.95	283.44	100.01	412.19	72.551	127.08	425.18	1706.8	-17.514	445.94	742.86	230.46	415.2	326.89	-104.77	444.16	105.06	37.533	413.57	1698.4	124.19	273.96	1442.8	160.81	386.92	1162	338.76	388.87	730.54	216.39	477.72	1054.4	186.04	407.47	649.06	209.09	163.81	259.58	-33.248	425.98	1321.5	293.86	265.25	226.06	7.7365	371.72	816.45	226.78	281.07	1212.3	12.985	344.53	1163.3	-197.58	217.88	232.47	-85.548	359.91	1133.8	250.26
606	3.03	538.73	861.59	389.73	354.58	47.399	-67.988	489.93	392.79	-49.11	273.87	113.28	-123.15	321.61	89.623	-46.56	423.69	339.79	-41.452	360.86	284.34	-37.302	526.67	529.98	-145.58	544.72	902.22	326.42	476.44	894.97	383.43	445.74	1502.8	222.24	485.41	1038.5	354.04	424.45	1358.2	-232.88	464.01	1057.5	-287.2	563.58	1303.8	25.716	596.34	1708.1	11.925	438.36	1541.7	-149.27	384.89	1190.8	-280.83	544.23	753.8	-180.06	502.23	891.04	-300.25	336.69	1568	46.163	269.15	1077.4	-43.231	477.35	277.39	161.83	493.99	1037.8	-134.93	431.74	930.34	-306.6	265.73	1076.6	65.934	434.46	512.3	197.52	501.77	1477.6	23.453	502.71	929.16	-243.88	625.34	39.944	82.273	468.62	198.41	91.303	574.99	53.202	69.642	530.7	30.217	164.95	462.38	815.28	-192.38	431.08	507.95	49.174	486.58	369	109.93	567.77	518.31	-11.495	490.74	732.94	-183.15	518.55	651.04	-172.29	353.23	40.71	83.895	477.57	283.3	100.12	412.23	72.603	127.07	430.44	1707.2	-17.373	448.57	742.78	230.6	427.94	326.8	-103.78	444.25	105.08	37.483	418.81	1699	124.33	279.11	1443.3	161.24	393.47	1162.7	339.55	391.48	730.87	216.58	482.38	1054.8	187.17	409.51	649.27	209.24	177.13	254.84	-32.902	431.91	1322.3	294.29	279.32	223.81	8.4989	374.91	816.91	226.96	285.92	1212.8	13.361	348.76	1163.8	-197.19	232.17	228.96	-85.003	366.37	1134.3	251.15
607	3.035	547.35	863.24	390.13	373.57	47.014	-66.849	501.28	393.88	-48.175	291.37	110.8	-122.4	339.46	88.423	-45.603	436.02	339.74	-40.55	374.49	283.39	-36.705	536.28	531.45	-144.92	552.88	903.88	326.8	484.83	896.19	383.99	450.96	1503.5	222.43	492.75	1039.8	354.59	428.76	1358.6	-232.67	467.98	1057.9	-287.19	568.44	1304.2	26.114	601.58	1708.3	12.033	443.23	1542	-149.08	388.84	1191.2	-280.58	551.39	755.64	-179.85	506.46	891.76	-300.47	341.76	1568.4	46.459	274.07	1077.8	-43.142	477.85	277.24	161.96	499.19	1038.5	-134.14	435.71	930.63	-306.14	270.47	1077	66.06	435.61	512.34	197.66	506.79	1478	23.66	507.19	929.75	-244.01	625.4	39.832	82.395	469.03	198.33	91.435	575.02	53.175	69.729	530.67	30.187	165.01	468.97	816.31	-191.99	432.55	508.06	49.195	487.43	368.83	110.09	576.91	520.68	-10.696	498.06	734.26	-182.72	526.72	652.65	-171.7	353.24	40.725	83.848	478.18	283.15	100.22	412.28	72.655	127.06	435.68	1707.6	-17.253	451.21	742.7	230.73	440.68	326.62	-102.8	444.34	105.09	37.431	424.04	1699.5	124.45	284.24	1443.8	161.64	400	1163.4	340.33	394.09	731.19	216.76	487.02	1055.1	188.29	411.55	649.49	209.37	190.62	249.81	-32.547	437.8	1323.1	294.72	293.53	221.35	9.2338	378.09	817.35	227.14	290.8	1213.3	13.718	352.99	1164.2	-196.81	246.6	225.23	-84.472	372.83	1134.8	252.01
